<?xml version="1.0" encoding="utf-8"?>
<!-- Generator: Adobe Illustrator 27.5.0, SVG Export Plug-In . SVG Version: 6.00 Build 0)  -->
<svg version="1.1" xmlns="http://www.w3.org/2000/svg" xmlns:xlink="http://www.w3.org/1999/xlink" x="0px" y="0px"
	 viewBox="0 0 750 500" style="enable-background:new 0 0 750 500;" xml:space="preserve">
<g id="Background">
	<linearGradient id="SVGID_1_" gradientUnits="userSpaceOnUse" x1="348.799" y1="266.4207" x2="986.8416" y2="-128.9297">
		<stop  offset="0" style="stop-color:#001A38"/>
		<stop  offset="1" style="stop-color:#10006A"/>
	</linearGradient>
	<rect style="fill:url(#SVGID_1_);" width="750.599" height="500"/>
</g>
<g id="Layer_1">
	<g>
		<g>
			<defs>
				<rect id="SVGID_00000098217394903403282260000006692302302103743641_" width="750.599" height="500"/>
			</defs>
			<clipPath id="SVGID_00000014633014117048572360000003650702871696149135_">
				<use xlink:href="#SVGID_00000098217394903403282260000006692302302103743641_"  style="overflow:visible;"/>
			</clipPath>
			<g style="clip-path:url(#SVGID_00000014633014117048572360000003650702871696149135_);">
				<g style="opacity:0.5;">
					
						<linearGradient id="SVGID_00000018220579282991150010000007764366109718910338_" gradientUnits="userSpaceOnUse" x1="1364.9243" y1="-628.3303" x2="1484.8568" y2="-527.6951" gradientTransform="matrix(0.1807 0.9835 -0.9835 0.1807 -442.7443 -1042.5717)">
						<stop  offset="0" style="stop-color:#FF55D0"/>
						<stop  offset="0.2165" style="stop-color:#AE00DC"/>
						<stop  offset="0.4356" style="stop-color:#7800BF"/>
						<stop  offset="0.7613" style="stop-color:#6601A0;stop-opacity:0"/>
					</linearGradient>
					<path style="fill:url(#SVGID_00000018220579282991150010000007764366109718910338_);" d="M298.25,264.003l12.924-2.374
						c6.704,36.499,42.783,60.339,79.342,51.591c32.179-7.7,53.641-38.821,49.403-71.635c-4.557-35.281-36.241-59.789-70.562-56.635
						c-3.357,0.309-6.381-2.043-6.99-5.359l0,0c-0.695-3.784,1.993-7.379,5.824-7.73c40.855-3.741,78.594,25.137,84.605,66.901
						c5.794,40.259-20.652,78.606-60.342,87.497C348.915,336.013,306.237,307.484,298.25,264.003z"/>
				</g>
				<g style="opacity:0.5;">
					
						<linearGradient id="SVGID_00000031208555043027599620000015396273226082445470_" gradientUnits="userSpaceOnUse" x1="849.9293" y1="69.6195" x2="1013.3075" y2="206.7101" gradientTransform="matrix(0.8232 0.5677 -0.5677 0.8232 -301.3512 -396.0344)">
						<stop  offset="0" style="stop-color:#FF55D0"/>
						<stop  offset="0.2165" style="stop-color:#AE00DC"/>
						<stop  offset="0.4356" style="stop-color:#7800BF"/>
						<stop  offset="0.7613" style="stop-color:#6601A0;stop-opacity:0"/>
					</linearGradient>
					<path style="fill:url(#SVGID_00000031208555043027599620000015396273226082445470_);" d="M314.569,337.707l10.163-14.736
						c41.617,28.701,99.334,16.911,126.123-26.731c23.58-38.413,14.276-89.065-21.416-116.591
						c-38.375-29.595-92.502-22.683-122.524,13.416c-2.937,3.531-8.115,4.179-11.896,1.571l0,0
						c-4.314-2.975-5.188-9.028-1.836-13.057c35.751-42.958,99.92-51.493,145.94-17.053c44.362,33.199,55.826,95.612,26.158,142.408
						C432.737,358.269,364.146,371.898,314.569,337.707z"/>
				</g>
				<g style="opacity:0.5;">
					
						<linearGradient id="SVGID_00000037669936886292546250000014676801367044477629_" gradientUnits="userSpaceOnUse" x1="-33.7052" y1="202.1651" x2="183.8776" y2="384.7388" gradientTransform="matrix(0.9835 -0.1807 0.1807 0.9835 256.3382 -39.3908)">
						<stop  offset="0" style="stop-color:#FF55D0"/>
						<stop  offset="0.2165" style="stop-color:#AE00DC"/>
						<stop  offset="0.4356" style="stop-color:#7800BF"/>
						<stop  offset="0.7613" style="stop-color:#6601A0;stop-opacity:0"/>
					</linearGradient>
					<path style="fill:url(#SVGID_00000037669936886292546250000014676801367044477629_);" d="M400.704,389.784l-4.307-23.447
						c66.218-12.163,109.467-77.617,93.597-143.943c-13.969-58.379-70.429-97.316-129.961-89.626
						c-64.007,8.268-108.469,65.749-102.747,128.014c0.56,6.091-3.707,11.577-9.723,12.682h0
						c-6.864,1.261-13.388-3.616-14.024-10.566c-6.786-74.12,45.604-142.586,121.373-153.491
						c73.038-10.512,142.609,37.466,158.739,109.473C531.345,297.868,479.587,375.294,400.704,389.784z"/>
				</g>
				<g style="opacity:0.5;">
					
						<linearGradient id="SVGID_00000129181149855338112440000006045108324730711206_" gradientUnits="userSpaceOnUse" x1="1161.3967" y1="-1510.4827" x2="1245.1692" y2="-1440.1892" gradientTransform="matrix(-0.5677 0.8232 -0.8232 -0.5677 -154.3408 -1572.0294)">
						<stop  offset="0" style="stop-color:#FF55D0"/>
						<stop  offset="0.2165" style="stop-color:#AE00DC"/>
						<stop  offset="0.4356" style="stop-color:#7800BF"/>
						<stop  offset="0.7613" style="stop-color:#6601A0;stop-opacity:0"/>
					</linearGradient>
					<path style="fill:url(#SVGID_00000129181149855338112440000006045108324730711206_);" d="M330.328,218.86l7.556,5.211
						c-14.716,21.339-8.671,50.934,13.706,64.67c19.696,12.091,45.668,7.32,59.782-10.981c15.175-19.677,11.631-47.431-6.879-62.825
						c-1.811-1.506-2.143-4.161-0.806-6.1l0,0c1.526-2.212,4.629-2.66,6.695-0.941c22.027,18.332,26.403,51.234,8.744,74.831
						c-17.023,22.747-49.025,28.625-73.02,13.413C319.785,279.451,312.796,244.281,330.328,218.86z"/>
				</g>
				<g style="opacity:0.5;">
					
						<linearGradient id="SVGID_00000053539360648494209140000011448061778974970027_" gradientUnits="userSpaceOnUse" x1="382.5368" y1="-1976.9001" x2="438.4141" y2="-1930.0135" gradientTransform="matrix(-0.9835 0.1807 -0.1807 -0.9835 423.9807 -1741.7128)">
						<stop  offset="0" style="stop-color:#FF55D0"/>
						<stop  offset="0.2165" style="stop-color:#AE00DC"/>
						<stop  offset="0.4356" style="stop-color:#7800BF"/>
						<stop  offset="0.7613" style="stop-color:#6601A0;stop-opacity:0"/>
					</linearGradient>
					<path style="fill:url(#SVGID_00000053539360648494209140000011448061778974970027_);" d="M368.776,214.102l1.106,6.021
						c-17.005,3.124-28.112,19.933-24.037,36.966c3.587,14.992,18.087,24.992,33.375,23.017
						c16.438-2.123,27.856-16.885,26.386-32.875c-0.144-1.564,0.952-2.973,2.497-3.257l0,0c1.763-0.324,3.438,0.929,3.602,2.714
						c1.743,19.035-11.711,36.617-31.17,39.418c-18.757,2.7-36.623-9.622-40.766-28.114
						C335.226,237.707,348.518,217.823,368.776,214.102z"/>
				</g>
				<g style="opacity:0.5;">
					
						<linearGradient id="SVGID_00000164479458358963776640000015576106532173169554_" gradientUnits="userSpaceOnUse" x1="-507.4101" y1="-1747.7335" x2="-471.2923" y2="-1717.427" gradientTransform="matrix(-0.8232 -0.5677 0.5677 -0.8232 953.4384 -1453.3093)">
						<stop  offset="0" style="stop-color:#FF55D0"/>
						<stop  offset="0.2165" style="stop-color:#AE00DC"/>
						<stop  offset="0.4356" style="stop-color:#7800BF"/>
						<stop  offset="0.7613" style="stop-color:#6601A0;stop-opacity:0"/>
					</linearGradient>
					<path style="fill:url(#SVGID_00000164479458358963776640000015576106532173169554_);" d="M388.725,230.611l-2.247,3.258
						c-9.2-6.345-21.96-3.738-27.882,5.91c-5.213,8.492-3.156,19.689,4.734,25.775c8.483,6.543,20.449,5.014,27.086-2.966
						c0.649-0.781,1.794-0.924,2.63-0.347l0,0c0.954,0.658,1.147,1.996,0.406,2.886c-7.904,9.497-22.089,11.384-32.263,3.77
						c-9.807-7.339-12.341-21.137-5.783-31.482C362.602,226.065,377.765,223.052,388.725,230.611z"/>
				</g>
				<g style="opacity:0.5;">
					
						<linearGradient id="SVGID_00000019666268605004486820000003510141013078520704_" gradientUnits="userSpaceOnUse" x1="332.6465" y1="-2302.9592" x2="550.2294" y2="-2120.3855" gradientTransform="matrix(-0.9835 0.1807 -0.1807 -0.9835 401.8923 -1990.5986)">
						<stop  offset="0" style="stop-color:#FF55D0"/>
						<stop  offset="0.2165" style="stop-color:#AE00DC"/>
						<stop  offset="0.4356" style="stop-color:#7800BF"/>
						<stop  offset="0.7613" style="stop-color:#6601A0;stop-opacity:0"/>
					</linearGradient>
					<path style="fill:url(#SVGID_00000019666268605004486820000003510141013078520704_);" d="M349.895,110.216l4.307,23.447
						c-66.218,12.163-109.467,77.618-93.598,143.943c13.969,58.379,70.429,97.316,129.961,89.626
						c64.007-8.268,108.469-65.749,102.747-128.014c-0.56-6.091,3.707-11.577,9.723-12.682h0
						c6.864-1.261,13.388,3.616,14.024,10.566c6.786,74.12-45.604,142.586-121.373,153.491
						c-73.039,10.512-142.609-37.466-158.739-109.473C219.254,202.132,271.012,124.706,349.895,110.216z"/>
				</g>
				<g style="opacity:0.5;">
					
						<linearGradient id="SVGID_00000008846281847903554380000003925092234144800650_" gradientUnits="userSpaceOnUse" x1="-662.4723" y1="-1960.7487" x2="-499.0941" y2="-1823.658" gradientTransform="matrix(-0.8232 -0.5677 0.5677 -0.8232 959.5817 -1633.955)">
						<stop  offset="0" style="stop-color:#FF55D0"/>
						<stop  offset="0.2165" style="stop-color:#AE00DC"/>
						<stop  offset="0.4356" style="stop-color:#7800BF"/>
						<stop  offset="0.7613" style="stop-color:#6601A0;stop-opacity:0"/>
					</linearGradient>
					<path style="fill:url(#SVGID_00000008846281847903554380000003925092234144800650_);" d="M436.03,162.292l-10.163,14.736
						c-41.617-28.701-99.334-16.911-126.123,26.731c-23.58,38.413-14.276,89.065,21.416,116.591
						c38.375,29.595,92.502,22.683,122.524-13.416c2.937-3.531,8.115-4.179,11.896-1.571l0,0c4.314,2.975,5.188,9.028,1.836,13.057
						c-35.751,42.958-99.92,51.493-145.94,17.053c-44.362-33.199-55.826-95.612-26.158-142.409
						C317.862,141.731,386.453,128.102,436.03,162.292z"/>
				</g>
				<g style="opacity:0.5;">
					
						<linearGradient id="SVGID_00000085935187444133859940000010508522511657509778_" gradientUnits="userSpaceOnUse" x1="-1140.1997" y1="-994.6821" x2="-1020.2673" y2="-894.0468" gradientTransform="matrix(-0.1807 -0.9835 0.9835 -0.1807 1100.9749 -987.4177)">
						<stop  offset="0" style="stop-color:#FF55D0"/>
						<stop  offset="0.2165" style="stop-color:#AE00DC"/>
						<stop  offset="0.4356" style="stop-color:#7800BF"/>
						<stop  offset="0.7613" style="stop-color:#6601A0;stop-opacity:0"/>
					</linearGradient>
					<path style="fill:url(#SVGID_00000085935187444133859940000010508522511657509778_);" d="M452.349,235.997l-12.924,2.374
						c-6.704-36.499-42.783-60.339-79.342-51.591c-32.179,7.699-53.641,38.82-49.403,71.635
						c4.557,35.281,36.241,59.789,70.562,56.635c3.357-0.309,6.381,2.043,6.99,5.359l0,0c0.695,3.784-1.993,7.379-5.824,7.73
						c-40.855,3.74-78.594-25.137-84.605-66.901c-5.794-40.259,20.652-78.606,60.342-87.497
						C401.685,163.987,444.362,192.516,452.349,235.997z"/>
				</g>
				<g style="opacity:0.5;">
					
						<linearGradient id="SVGID_00000127748227762076653080000015105977050101686953_" gradientUnits="userSpaceOnUse" x1="-868.9713" y1="1.9189" x2="-785.1989" y2="72.2123" gradientTransform="matrix(0.5677 -0.8232 0.8232 0.5677 812.5713 -457.9599)">
						<stop  offset="0" style="stop-color:#FF55D0"/>
						<stop  offset="0.2165" style="stop-color:#AE00DC"/>
						<stop  offset="0.4356" style="stop-color:#7800BF"/>
						<stop  offset="0.7613" style="stop-color:#6601A0;stop-opacity:0"/>
					</linearGradient>
					<path style="fill:url(#SVGID_00000127748227762076653080000015105977050101686953_);" d="M420.272,281.14l-7.556-5.211
						c14.716-21.339,8.671-50.933-13.706-64.67c-19.696-12.091-45.668-7.32-59.782,10.981
						c-15.175,19.677-11.631,47.431,6.879,62.824c1.811,1.506,2.143,4.161,0.806,6.1l0,0c-1.526,2.212-4.629,2.66-6.695,0.941
						c-22.027-18.332-26.403-51.234-8.744-74.831c17.023-22.747,49.025-28.625,73.02-13.413
						C430.815,220.549,437.803,255.719,420.272,281.14z"/>
				</g>
				<g style="opacity:0.5;">
					
						<linearGradient id="SVGID_00000023266692745201548070000015027050415834413992_" gradientUnits="userSpaceOnUse" x1="16.1851" y1="528.2239" x2="72.0624" y2="575.1105" gradientTransform="matrix(0.9835 -0.1807 0.1807 0.9835 234.2498 -288.2765)">
						<stop  offset="0" style="stop-color:#FF55D0"/>
						<stop  offset="0.2165" style="stop-color:#AE00DC"/>
						<stop  offset="0.4356" style="stop-color:#7800BF"/>
						<stop  offset="0.7613" style="stop-color:#6601A0;stop-opacity:0"/>
					</linearGradient>
					<path style="fill:url(#SVGID_00000023266692745201548070000015027050415834413992_);" d="M381.824,285.898l-1.106-6.022
						c17.005-3.124,28.112-19.933,24.037-36.966c-3.587-14.992-18.087-24.992-33.375-23.017
						c-16.438,2.123-27.856,16.885-26.386,32.875c0.144,1.564-0.952,2.973-2.497,3.257l0,0c-1.763,0.324-3.438-0.929-3.602-2.713
						c-1.743-19.035,11.711-36.617,31.17-39.418c18.757-2.7,36.623,9.622,40.766,28.114
						C415.374,262.293,402.082,282.177,381.824,285.898z"/>
				</g>
				<g style="opacity:0.5;">
					
						<linearGradient id="SVGID_00000080201645634264219650000009668915149254974356_" gradientUnits="userSpaceOnUse" x1="1004.9915" y1="282.6345" x2="1041.1094" y2="312.9409" gradientTransform="matrix(0.8232 0.5677 -0.5677 0.8232 -295.208 -576.68)">
						<stop  offset="0" style="stop-color:#FF55D0"/>
						<stop  offset="0.2165" style="stop-color:#AE00DC"/>
						<stop  offset="0.4356" style="stop-color:#7800BF"/>
						<stop  offset="0.7613" style="stop-color:#6601A0;stop-opacity:0"/>
					</linearGradient>
					<path style="fill:url(#SVGID_00000080201645634264219650000009668915149254974356_);" d="M361.874,269.389l2.247-3.258
						c9.2,6.345,21.96,3.738,27.882-5.91c5.213-8.492,3.156-19.689-4.734-25.775c-8.483-6.543-20.449-5.014-27.086,2.966
						c-0.649,0.781-1.794,0.924-2.63,0.347l0,0c-0.954-0.658-1.147-1.996-0.406-2.886c7.904-9.497,22.089-11.384,32.263-3.77
						c9.807,7.339,12.341,21.137,5.783,31.482C387.997,273.935,372.834,276.948,361.874,269.389z"/>
				</g>
				
					<linearGradient id="SVGID_00000109747989787752458690000003163478960344368317_" gradientUnits="userSpaceOnUse" x1="730.2603" y1="-113.9066" x2="1530.0686" y2="557.2123" gradientTransform="matrix(0.8232 0.5677 -0.5677 0.8232 -371.3497 -590.7884)">
					<stop  offset="0" style="stop-color:#FF55D0"/>
					<stop  offset="0.2165" style="stop-color:#AE00DC"/>
					<stop  offset="0.4356" style="stop-color:#7800BF"/>
					<stop  offset="0.7613" style="stop-color:#6601A0;stop-opacity:0"/>
				</linearGradient>
				<path style="fill:url(#SVGID_00000109747989787752458690000003163478960344368317_);" d="M77.998,679.367l49.751-72.141
					c203.732,140.502,486.282,82.786,617.429-130.861c115.434-188.05,69.888-436.012-104.839-570.765
					C452.478-239.281,187.5-205.442,40.53-28.724C26.153-11.437,0.805-8.268-17.704-21.033l0,0
					c-21.119-14.565-25.399-44.198-8.988-63.917c175.019-210.296,489.154-252.082,714.442-83.484
					C904.92-5.911,961.042,299.628,815.804,528.718C656.482,780.024,320.699,846.743,77.998,679.367z"/>
				<g>
					
						<linearGradient id="SVGID_00000147210682799213233600000005464672112823959470_" gradientUnits="userSpaceOnUse" x1="-783.8104" y1="-326.7215" x2="-497.1789" y2="-86.2091" gradientTransform="matrix(0.5677 -0.8232 0.8232 0.5677 902.8754 -180.7839)">
						<stop  offset="0" style="stop-color:#FF55D0"/>
						<stop  offset="0.2165" style="stop-color:#AE00DC"/>
						<stop  offset="0.4356" style="stop-color:#7800BF"/>
						<stop  offset="0.7613" style="stop-color:#6601A0;stop-opacity:0"/>
					</linearGradient>
					<path style="fill:url(#SVGID_00000147210682799213233600000005464672112823959470_);" d="M529.174,356.546l-25.853-17.83
						c50.352-73.012,29.669-174.271-46.897-221.271c-67.392-41.369-156.256-25.046-204.548,37.572
						c-51.922,67.325-39.795,162.286,23.536,214.957c6.195,5.152,7.331,14.236,2.756,20.87l0,0
						c-5.22,7.569-15.84,9.102-22.906,3.221c-75.365-62.722-90.34-175.3-29.919-256.038
						c58.244-77.828,167.742-97.941,249.842-45.891C565.247,149.231,589.158,269.568,529.174,356.546z"/>
				</g>
				<g>
					
						<linearGradient id="SVGID_00000134248724920056949550000001605644107718897561_" gradientUnits="userSpaceOnUse" x1="-981.4902" y1="-1226.91" x2="-607.7589" y2="-913.3122" gradientTransform="matrix(-0.1807 -0.9835 0.9835 -0.1807 1259.519 -738.4732)">
						<stop  offset="0" style="stop-color:#FF55D0"/>
						<stop  offset="0.2165" style="stop-color:#AE00DC"/>
						<stop  offset="0.4356" style="stop-color:#7800BF"/>
						<stop  offset="0.7613" style="stop-color:#6601A0;stop-opacity:0"/>
					</linearGradient>
					<path style="fill:url(#SVGID_00000134248724920056949550000001605644107718897561_);" d="M615.399,206.364l-40.274,7.398
						C554.233,100.023,441.805,25.736,327.882,52.994C227.607,76.987,160.726,173.966,173.934,276.221
						c14.201,109.942,112.933,186.313,219.884,176.484c10.462-0.962,19.884,6.367,21.783,16.7l0,0
						c2.166,11.79-6.211,22.996-18.149,24.089c-127.313,11.656-244.913-78.331-263.644-208.476
						C115.751,159.564,198.162,40.067,321.844,12.361C457.52-18.032,590.511,70.87,615.399,206.364z"/>
				</g>
				<g>
					
						<linearGradient id="SVGID_00000023261739744264304030000010360428368297032595_" gradientUnits="userSpaceOnUse" x1="-533.6904" y1="-1996.9678" x2="-53.9947" y2="-1594.4553" gradientTransform="matrix(-0.8232 -0.5677 0.5677 -0.8232 1118.1259 -1385.0105)">
						<stop  offset="0" style="stop-color:#FF55D0"/>
						<stop  offset="0.2165" style="stop-color:#AE00DC"/>
						<stop  offset="0.4356" style="stop-color:#7800BF"/>
						<stop  offset="0.7613" style="stop-color:#6601A0;stop-opacity:0"/>
					</linearGradient>
					<path style="fill:url(#SVGID_00000023261739744264304030000010360428368297032595_);" d="M553.61-7.518l-29.839,43.267
						C401.581-48.519,232.117-13.903,153.46,114.234c-69.233,112.785-41.916,261.504,62.879,342.324
						c112.672,86.895,271.596,66.599,359.744-39.39c8.623-10.368,23.826-12.269,34.927-4.613v0
						c12.667,8.735,15.234,26.508,5.391,38.335C511.43,577.019,323.024,602.08,187.904,500.961
						C57.653,403.486,23.993,220.235,111.101,82.835C206.657-67.889,408.048-107.905,553.61-7.518z"/>
				</g>
				<g>
					
						<linearGradient id="SVGID_00000073685901623078231260000013818226430420165528_" gradientUnits="userSpaceOnUse" x1="301.5829" y1="-2283.8855" x2="921.9144" y2="-1763.3657" gradientTransform="matrix(-0.9835 0.1807 -0.1807 -0.9835 588.7268 -1809.8699)">
						<stop  offset="0" style="stop-color:#FF55D0"/>
						<stop  offset="0.2165" style="stop-color:#AE00DC"/>
						<stop  offset="0.4356" style="stop-color:#7800BF"/>
						<stop  offset="0.7613" style="stop-color:#6601A0;stop-opacity:0"/>
					</linearGradient>
					<path style="fill:url(#SVGID_00000073685901623078231260000013818226430420165528_);" d="M302.872-148.525l12.279,66.849
						C126.364-46.999,3.058,139.612,48.303,328.706c39.824,166.439,200.793,277.45,370.52,255.526
						c182.485-23.571,309.248-187.45,292.934-364.97c-1.596-17.365,10.568-33.005,27.719-36.155h0
						c19.57-3.595,38.169,10.31,39.983,30.124c19.347,211.318-130.016,406.514-346.035,437.605
						C225.19,680.807,26.845,544.019-19.142,338.728C-69.588,113.528,77.974-107.215,302.872-148.525z"/>
				</g>
				<g>
					
						<linearGradient id="SVGID_00000113355587808775773260000018374339607821380759_" gradientUnits="userSpaceOnUse" x1="-782.1414" y1="-2144.2747" x2="17.6669" y2="-1473.1558" gradientTransform="matrix(-0.8232 -0.5677 0.5677 -0.8232 1029.5801 -1439.201)">
						<stop  offset="0" style="stop-color:#FF55D0"/>
						<stop  offset="0.2165" style="stop-color:#AE00DC"/>
						<stop  offset="0.4356" style="stop-color:#7800BF"/>
						<stop  offset="0.7613" style="stop-color:#6601A0;stop-opacity:0"/>
					</linearGradient>
					<path style="fill:url(#SVGID_00000113355587808775773260000018374339607821380759_);" d="M672.602-179.367l-49.751,72.141
						C419.119-247.728,136.568-190.012,5.422,23.635c-115.434,188.05-69.888,436.012,104.839,570.765
						c187.861,144.881,452.838,111.043,599.809-65.675c14.377-17.287,39.725-20.456,58.234-7.691l0,0
						c21.12,14.565,25.399,44.198,8.988,63.917C602.273,795.246,288.139,837.032,62.85,668.434
						C-154.32,505.911-210.442,200.372-65.204-28.718C94.118-280.024,429.901-346.743,672.602-179.367z"/>
				</g>
				<g>
					
						<linearGradient id="SVGID_00000029029848908826079630000013192452178247171990_" gradientUnits="userSpaceOnUse" x1="-64.7687" y1="221.2386" x2="555.5627" y2="741.7584" gradientTransform="matrix(0.9835 -0.1807 0.1807 0.9835 69.5036 -220.1194)">
						<stop  offset="0" style="stop-color:#FF55D0"/>
						<stop  offset="0.2165" style="stop-color:#AE00DC"/>
						<stop  offset="0.4356" style="stop-color:#7800BF"/>
						<stop  offset="0.7613" style="stop-color:#6601A0;stop-opacity:0"/>
					</linearGradient>
					<path style="fill:url(#SVGID_00000029029848908826079630000013192452178247171990_);" d="M447.728,648.525l-12.279-66.849
						c188.787-34.677,312.092-221.288,266.847-410.383C662.472,4.855,501.503-106.156,331.776-84.233
						C149.291-60.662,22.528,103.217,38.843,280.737c1.596,17.365-10.568,33.005-27.719,36.155h0
						c-19.57,3.595-38.169-10.31-39.983-30.124C-48.207,75.451,101.157-119.746,317.175-150.837
						c208.234-29.97,406.579,106.817,452.566,312.109C820.187,386.472,672.625,607.215,447.728,648.525z"/>
				</g>
				<g>
					
						<linearGradient id="SVGID_00000162347189751753069100000000357254439782412475_" gradientUnits="userSpaceOnUse" x1="978.7111" y1="33.4001" x2="1458.4069" y2="435.9127" gradientTransform="matrix(0.8232 0.5677 -0.5677 0.8232 -459.8955 -644.9788)">
						<stop  offset="0" style="stop-color:#FF55D0"/>
						<stop  offset="0.2165" style="stop-color:#AE00DC"/>
						<stop  offset="0.4356" style="stop-color:#7800BF"/>
						<stop  offset="0.7613" style="stop-color:#6601A0;stop-opacity:0"/>
					</linearGradient>
					<path style="fill:url(#SVGID_00000162347189751753069100000000357254439782412475_);" d="M196.989,507.518l29.839-43.267
						c122.191,84.268,291.654,49.652,370.311-78.485c69.233-112.785,41.916-261.504-62.879-342.324
						c-112.672-86.895-271.596-66.6-359.743,39.39C165.894,93.2,150.691,95.1,139.59,87.445l0,0
						c-12.667-8.735-15.233-26.508-5.391-38.335C239.169-77.019,427.576-102.08,562.696-0.961
						c130.251,97.475,163.911,280.726,76.802,418.126C543.943,567.889,342.552,607.905,196.989,507.518z"/>
				</g>
				<g>
					
						<linearGradient id="SVGID_00000018232301444432773920000014844954467299343774_" gradientUnits="userSpaceOnUse" x1="1246.5575" y1="-1839.1232" x2="1533.1891" y2="-1598.6107" gradientTransform="matrix(-0.5677 0.8232 -0.8232 -0.5677 -244.645 -1849.2054)">
						<stop  offset="0" style="stop-color:#FF55D0"/>
						<stop  offset="0.2165" style="stop-color:#AE00DC"/>
						<stop  offset="0.4356" style="stop-color:#7800BF"/>
						<stop  offset="0.7613" style="stop-color:#6601A0;stop-opacity:0"/>
					</linearGradient>
					<path style="fill:url(#SVGID_00000018232301444432773920000014844954467299343774_);" d="M221.425,143.454l25.853,17.83
						c-50.352,73.012-29.668,174.271,46.897,221.271c67.392,41.369,156.256,25.046,204.548-37.572
						c51.922-67.325,39.795-162.286-23.536-214.957c-6.195-5.152-7.331-14.236-2.756-20.87h0c5.22-7.569,15.839-9.102,22.906-3.221
						c75.365,62.722,90.34,175.3,29.918,256.038c-58.244,77.828-167.742,97.941-249.842,45.892
						C185.352,350.769,161.442,230.432,221.425,143.454z"/>
				</g>
				<g>
					
						<linearGradient id="SVGID_00000093892773480530281830000008499367413554104484_" gradientUnits="userSpaceOnUse" x1="1523.6339" y1="-860.5584" x2="1897.3652" y2="-546.9606" gradientTransform="matrix(0.1807 0.9835 -0.9835 0.1807 -601.2886 -1291.5161)">
						<stop  offset="0" style="stop-color:#FF55D0"/>
						<stop  offset="0.2165" style="stop-color:#AE00DC"/>
						<stop  offset="0.4356" style="stop-color:#7800BF"/>
						<stop  offset="0.7613" style="stop-color:#6601A0;stop-opacity:0"/>
					</linearGradient>
					<path style="fill:url(#SVGID_00000093892773480530281830000008499367413554104484_);" d="M135.2,293.636l40.274-7.398
						c20.892,113.739,133.32,188.026,247.243,160.768c100.275-23.993,167.155-120.972,153.947-223.227
						C562.464,113.837,463.732,37.466,356.781,47.295c-10.462,0.961-19.884-6.367-21.783-16.7l0,0
						c-2.166-11.791,6.211-22.996,18.149-24.089C480.461-5.15,598.061,84.837,616.792,214.982
						c18.056,125.455-64.354,244.952-188.036,272.658C293.08,518.032,160.088,429.13,135.2,293.636z"/>
				</g>
			</g>
		</g>
		<g>
			<g>
				
					<text transform="matrix(1 0 0 1 283.8691 250.0273)" style="fill:#FFFFFF; font-family:'Montserrat-ExtraBold'; font-size:27.74px; letter-spacing:2;">COLORFUL</text>
			</g>
			
				<text transform="matrix(1 0 0 1 286.5781 270.8633)" style="fill:#FFFFFF; font-family:'Montserrat-Medium'; font-size:10.2215px; letter-spacing:2;">ABSTRACT BACKGROUND</text>
		</g>
	</g>
</g>
</svg>
